Coordinates
version=1
nRows=22
nColumns=33
inDegrees=yes

Units are S.I. units (second, meters, Newtons, ...)
Angles are in degrees.

endheader
time	ground_thorax_rot_x	ground_thorax_rot_y	ground_thorax_rot_z	ground_thorax_tx	ground_thorax_ty	ground_thorax_tz	clav_prot_r	clav_elev_r	scapula_abduction_r	scapula_elevation_r	scapula_upward_rot_r	scapula_winging_r	shoulder_elv_r	plane_of_elev_r	axial_rot_r	elbow_flexion_r	pro_sup_r	wrist_flex_r	wrist_dev_r	clav_prot_l	clav_elev_l	scapula_abduction_l	scapula_elevation_l	scapula_upward_rot_l	scapula_winging_l	shoulder_elv_l	plane_of_elev_l	axial_rot_l	elbow_flexion_l	pro_sup_l	wrist_flex_l	wrist_dev_l	
5.3100	-40.878957	-11.766257	15.919948	-228.567759	825.926833	-1.029960	9.842528	-45.000000	39.621638	-45.000000	-44.999971	2059.039845	-2985.365962	147.584018	-122.332077	1457.553467	65.346607	18.129503	4.069375	15.732283	38.527132	-38.257683	-45.000000	-45.000000	-1714.046108	-1008.170089	26.617330	-1.829749	1805.325454	-331.961965	7.816164	-23.048815	
5.3200	-40.872178	-11.835623	15.964584	-228.415425	825.109174	-0.962495	9.700946	-45.000000	39.533084	-45.000000	-44.999949	2059.088238	-2985.438580	147.627261	-122.442963	1457.701898	66.837386	18.097451	4.041877	15.736224	38.487458	-38.204004	-45.000000	-45.000000	-1714.149277	-1008.200009	26.527347	-2.303405	1805.507739	-331.067801	7.543155	-23.153862	
5.3300	-40.859326	-11.917152	16.035214	-228.217044	824.311320	-0.914431	9.513739	-45.000000	39.425912	-45.000000	-44.999908	2059.156636	-2985.488451	147.681171	-122.563144	1457.836136	68.327696	18.071173	4.026094	15.739353	38.403490	-38.128618	-45.000000	-45.000000	-1714.272918	-1008.189213	26.442833	-2.759543	1805.685435	-330.217435	7.273030	-23.281395	
5.3400	-40.839534	-11.982137	16.092634	-227.899902	823.544701	-0.905110	9.433249	-45.000000	39.365507	-45.000000	-44.999835	2059.212646	-2985.555700	147.719527	-122.681173	1457.986575	69.807445	18.012048	3.992060	15.747757	38.363867	-38.082686	-45.000000	-45.000000	-1714.370233	-1008.202866	26.374943	-3.138927	1805.853837	-329.462363	7.024027	-23.351031	
5.3500	-40.817818	-12.034413	16.141255	-227.478378	822.827744	-0.937123	9.401108	-45.000000	39.328895	-45.000000	-44.999704	2059.266431	-2985.625908	147.740482	-122.798365	1458.142908	71.279633	17.933856	3.952178	15.753962	38.345540	-38.052445	-45.000000	-44.999999	-1714.455280	-1008.210805	26.317740	-3.460477	1806.012987	-328.797709	6.791790	-23.390800	
5.3600	-40.794181	-12.079754	16.186913	-226.956790	822.181131	-1.013157	9.405846	-45.000000	39.316071	-45.000000	-44.999470	2059.324840	-2985.687336	147.753736	-122.910559	1458.307646	72.750701	17.837349	3.907379	15.761945	38.331248	-38.030705	-45.000000	-44.999999	-1714.528359	-1008.210373	26.273350	-3.729765	1806.159476	-328.222539	6.575653	-23.405389	
5.3700	-40.775727	-12.107901	16.213297	-226.359266	821.626263	-1.128679	9.430831	-45.000000	39.323008	-45.000000	-44.999050	2059.383285	-2985.741272	147.744891	-123.008729	1458.476212	74.229653	17.727941	3.861381	15.763039	38.335483	-38.021378	-45.000000	-44.999998	-1714.593436	-1008.193563	26.234174	-3.965110	1806.296249	-327.720426	6.374485	-23.404255	
5.3800	-40.762080	-12.128760	16.231662	-225.713049	821.181569	-1.274376	9.449593	-45.000000	39.340934	-45.000000	-44.998299	2059.452371	-2985.767433	147.733139	-123.088208	1458.654479	75.734118	17.610622	3.815032	15.766838	38.325500	-38.021095	-45.000000	-44.999996	-1714.648285	-1008.167807	26.200922	-4.185059	1806.420155	-327.269716	6.185244	-23.400225	
5.3900	-40.762190	-12.127105	16.220688	-225.034706	820.859406	-1.439047	9.472632	-45.000000	39.369903	-45.000000	-44.996953	2059.519617	-2985.786736	147.697638	-123.139293	1458.837934	77.290520	17.485009	3.767174	15.766180	38.338450	-38.035180	-45.000000	-44.999993	-1714.696217	-1008.125157	26.167121	-4.398898	1806.540824	-326.854727	6.008534	-23.392138	
5.4000	-40.772721	-12.117794	16.202096	-224.329915	820.664835	-1.611307	9.488812	-45.000000	39.402944	-45.000000	-44.994544	2059.595300	-2985.777938	147.664995	-123.159668	1459.046463	78.943164	17.351707	3.713188	15.768382	38.333033	-38.069615	-45.000000	-44.999987	-1714.726469	-1008.084154	26.136169	-4.608708	1806.652786	-326.463719	5.842742	-23.381962	
5.4100	-40.800567	-12.091461	16.161797	-223.594370	820.595358	-1.781167	9.500513	-45.000000	39.435163	-45.000000	-44.990220	2059.667881	-2985.760838	147.612207	-123.144895	1459.275833	80.767760	17.207343	3.654732	15.768300	38.343706	-38.131624	-45.000000	-44.999977	-1714.745732	-1008.034877	26.096011	-4.816114	1806.763996	-326.091239	5.687999	-23.370425	
5.4200	-40.842151	-12.064974	16.115752	-222.816386	820.641447	-1.940930	9.502013	-45.000000	39.466121	-45.000000	-44.982502	2059.748310	-2985.721531	147.559629	-123.088191	1459.546857	82.844212	17.048832	3.589612	15.770628	38.339439	-38.220626	-45.000000	-44.999959	-1714.747897	-1007.992813	26.046240	-5.018185	1806.868869	-325.738778	5.543692	-23.355676	
5.4300	-40.901684	-12.033598	16.050885	-221.979871	820.787631	-2.085568	9.499418	-45.000000	39.499605	-45.000000	-44.968598	2059.828991	-2985.687487	147.488518	-122.963353	1459.851605	85.311567	16.868594	3.526013	15.768663	38.353383	-38.317993	-45.000000	-44.999926	-1714.750130	-1007.932075	25.984510	-5.215667	1806.976898	-325.416506	5.410189	-23.339026	
5.4400	-40.970582	-12.006922	15.983348	-221.067636	821.014610	-2.212378	9.491101	-45.000000	39.542204	-45.000000	-44.943912	2059.920759	-2985.643486	147.425506	-122.736306	1460.210164	88.302140	16.660375	3.467700	15.765431	38.353058	-38.417308	-45.000000	-44.999868	-1714.749720	-1007.867800	25.923179	-5.407446	1807.079188	-325.137837	5.288790	-23.316763	
5.4500	-41.047604	-11.978333	15.905098	-220.063617	821.300930	-2.320493	9.489515	-45.000000	39.598812	-45.000000	-44.899077	2060.007318	-2985.620495	147.358343	-122.296782	1460.631871	92.274485	16.398390	3.433728	15.758464	38.364016	-38.514792	-45.000000	-44.999763	-1714.753643	-1007.794742	25.862849	-5.598046	1807.184076	-324.921400	5.179373	-23.288892	
5.4600	-41.127040	-11.940871	15.824601	-218.954246	821.625252	-2.410136	9.488608	-45.000000	39.657254	-45.000000	-44.820483	2060.092581	-2985.613270	147.303380	-121.573336	1461.133476	97.464558	16.070480	3.436315	15.760344	38.369047	-38.622496	-45.000000	-44.999576	-1714.752521	-1007.733797	25.817409	-5.787113	1807.287243	-324.782826	5.084821	-23.254079	
5.4700	-41.208601	-11.888674	15.736788	-217.729096	821.967694	-2.482116	9.482870	-45.000000	39.719805	-45.000000	-44.701461	2060.170861	-2985.666011	147.288610	-120.055318	1461.827907	105.911960	15.576195	3.529627	15.777848	38.387851	-38.737635	-45.000000	-44.999241	-1714.744008	-1007.681535	25.795854	-5.997737	1807.389748	-324.754894	5.002740	-23.205366	
5.4800	-41.284643	-11.820756	15.656460	-216.380819	822.312023	-2.537251	9.475896	-45.000000	39.777221	-45.000000	-44.519099	2060.248533	-2985.754729	147.321828	-117.897021	1462.657348	116.764047	14.959375	3.713981	15.804759	38.396591	-38.866559	-45.000000	-44.998640	-1714.736170	-1007.641387	25.795332	-6.195416	1807.485564	-324.835317	4.942470	-23.150257	
5.4900	-41.356516	-11.734195	15.570905	-214.905006	822.645853	-2.576258	9.467217	-45.000000	39.845188	-45.000000	-44.245883	2060.320878	-2985.883271	147.389784	-115.269076	1463.564318	129.277080	14.259289	3.972113	15.841531	38.408825	-39.013955	-45.000000	-44.997564	-1714.728883	-1007.611368	25.814284	-6.358766	1807.571177	-325.020810	4.906890	-23.091019	
5.5000	-41.420710	-11.627781	15.481361	-213.299668	822.961489	-2.599595	9.459334	-45.000000	39.921506	-45.000000	-43.861578	2060.395310	-2986.008881	147.454679	-112.877971	1464.353683	140.511321	13.625073	4.236376	15.881497	38.420162	-39.172378	-45.000000	-44.995637	-1714.738256	-1007.579445	25.847591	-6.439004	1807.647971	-325.287001	4.903878	-23.039318	
5.5100	-41.475804	-11.510151	15.385265	-211.565064	823.254821	-2.607650	9.445689	-45.000000	40.027401	-45.000000	-43.375664	2060.476806	-2986.128348	147.517769	-110.830442	1465.010160	150.177839	13.076066	4.477325	15.924472	38.434047	-39.330345	-45.000000	-44.992182	-1714.761345	-1007.541638	25.900683	-6.439120	1807.712107	-325.639387	4.929673	-22.988565	
5.5200	-41.517462	-11.388602	15.296422	-209.703028	823.525141	-2.600832	9.439709	-45.000000	40.155427	-45.000000	-42.801284	2060.565337	-2986.207060	147.544648	-109.655162	1465.401002	156.170986	12.716378	4.642544	15.957812	38.443318	-39.482332	-45.000000	-44.986002	-1714.808240	-1007.490744	25.963167	-6.329526	1807.771245	-326.062010	4.989928	-22.948443	
